<svg width="64" height="64" viewBox="0 0 64 64" fill="none" xmlns="http://www.w3.org/2000/svg">
<path fill-rule="evenodd" clip-rule="evenodd" d="M58.6666 10.6666C58.6666 15.0849 55.0849 18.6666 50.6666 18.6666C47.1833 18.6666 44.22 16.4405 43.1218 13.3333H18.6666C14.2483 13.3333 10.6666 16.915 10.6666 21.3333V22.0247C10.6666 26.4429 14.2483 30.0247 18.6666 30.0247H45.6789C52.8518 30.0247 58.6666 35.8394 58.6666 43.0123C58.6666 50.1852 52.8518 56 45.6789 56H41.1049L41.8859 56.781C42.9273 57.8224 42.9273 59.5109 41.8859 60.5522C40.8445 61.5936 39.1561 61.5936 38.1147 60.5522L30.8958 53.3333L38.1147 46.1143C39.1561 45.0729 40.8445 45.0729 41.8859 46.1143C42.9273 47.1557 42.9273 48.8442 41.8859 49.8856L41.1049 50.6666H45.6789C49.9063 50.6666 53.3333 47.2397 53.3333 43.0123C53.3333 38.7849 49.9063 35.358 45.6789 35.358H18.6666C11.3028 35.358 5.33325 29.3884 5.33325 22.0247V21.3333C5.33325 13.9695 11.3028 7.99996 18.6666 7.99996H43.1218C44.22 4.89278 47.1833 2.66663 50.6666 2.66663C55.0849 2.66663 58.6666 6.24835 58.6666 10.6666ZM13.3333 61.3333C17.7515 61.3333 21.3333 57.7516 21.3333 53.3333C21.3333 48.915 17.7515 45.3333 13.3333 45.3333C8.91497 45.3333 5.33325 48.915 5.33325 53.3333C5.33325 57.7516 8.91497 61.3333 13.3333 61.3333Z" fill="#7C7E92" fill-opacity="0.56"/>
</svg>
